<svg xmlns="http://www.w3.org/2000/svg" width="1439" height="250" viewBox="0 0 1439 250" fill="none">
<path d="M33.5787 124.064V229.31L263.035 186.643" stroke="black"/>
<path d="M34.5269 124.064L260.191 78.5516V182.85L34.5269 228.362V124.064Z" fill="#001242"/>
<path fill-rule="evenodd" clip-rule="evenodd" d="M26.4675 124.064C26.4675 120.227 29.1724 116.922 32.9335 116.163L258.598 70.6512C260.967 70.1734 263.425 70.784 265.296 72.3147C267.166 73.8455 268.25 76.1347 268.25 78.5516V182.85C268.25 186.687 265.545 189.992 261.784 190.75L36.1202 236.263C33.7511 236.74 31.2926 236.13 29.4223 234.599C27.5521 233.068 26.4675 230.779 26.4675 228.362V124.064ZM34.5269 124.064L260.191 78.5516V182.85L34.5269 228.362V124.064Z" fill="#0036D0"/>
<path d="M34.5269 165.783L260.191 120.271V152.509L34.5269 198.021V165.783Z" fill="white"/>
<path d="M174.34 12.7115C171.475 10.8498 167.746 11.0006 165.041 13.0876L29.6375 117.542C22.7798 122.833 28.0436 134.031 36.5299 132.3C49.0361 129.748 61.3939 127.512 67.4008 127.254C88.7473 126.336 91.8333 143.78 109.713 140.069C127.593 136.358 124.73 116.69 150.419 111.186C169.327 107.134 230.855 93.0573 262.019 85.9083C268.942 84.3202 270.516 75.2064 264.56 71.3363L174.34 12.7115Z" fill="#7BB3FF"/>
<path fill-rule="evenodd" clip-rule="evenodd" d="M167.354 16.0857L31.9503 120.54C30.1679 121.915 29.8541 124.017 30.7587 125.948C31.6678 127.889 33.5296 129.047 35.7729 128.59C48.1904 126.056 60.869 123.745 67.2381 123.471C79.0647 122.962 86.0303 127.606 91.75 131.42L91.957 131.558C94.851 133.487 97.1966 135.013 99.8126 135.929C102.296 136.799 105.142 137.15 108.944 136.361C115.663 134.967 118.674 131.065 122.961 125.509C123.346 125.01 123.742 124.497 124.151 123.972C129.151 117.558 135.554 110.499 149.626 107.483C168.499 103.439 229.991 89.3707 261.172 82.2177C264.794 81.3868 265.685 76.5831 262.497 74.5113L172.277 15.8866C170.76 14.901 168.786 14.9808 167.354 16.0857ZM165.041 13.0876C167.746 11.0006 171.475 10.8498 174.34 12.7115L264.56 71.3363C270.516 75.2064 268.942 84.3202 262.019 85.9083C230.855 93.0573 169.327 107.134 150.419 111.186C136.434 114.183 130.911 121.377 125.896 127.909C121.7 133.375 117.859 138.378 109.713 140.069C100.703 141.939 95.4498 138.437 89.7235 134.62C84.0861 130.862 77.9904 126.798 67.4008 127.254C61.3939 127.512 49.0361 129.748 36.5299 132.3C28.0436 134.031 22.7798 122.833 29.6375 117.542L165.041 13.0876Z" fill="#0036D0"/>
<path d="M193.066 42.5467C195.192 33.9022 203.366 30.8861 212.01 33.0125C220.655 35.1389 226.497 41.6025 224.37 50.247C223.361 54.35 222.035 55.9075 219.098 57.5554C218.295 57.6619 215.9 56.9419 213.848 57.5554C211.796 58.1689 208.355 58.8441 202.824 57.3124C200.537 56.679 200.423 56.6207 197.177 56.9419C193.93 57.2632 192.016 46.8116 193.066 42.5467Z" fill="#DF0000"/>
<path d="M220.045 42.3898C221.286 40.0048 213.835 32.396 211.637 36.0802C209.917 38.9627 213.093 38.3037 215.278 40.0047C217.393 41.6513 218.263 45.8107 220.045 42.3898Z" fill="#FFDEDE"/>
<path d="M228.969 6.39221C223.278 11.291 211.146 33.8952 211.146 33.8952L213.362 34.204C213.362 34.204 213.252 32.8604 213.656 32.0919C215.542 28.5126 220.261 19.5613 224.473 14.1482C226.586 11.4319 229.571 10.6337 230.118 10.321C230.561 10.0686 230.539 5.04108 228.969 6.39221Z" fill="#DF0000"/>
<path d="M270.621 184.272C270.621 188.462 267.225 191.858 263.035 191.858C258.846 191.858 255.45 188.462 255.45 184.272C255.45 180.083 258.846 176.687 263.035 176.687C267.225 176.687 270.621 180.083 270.621 184.272Z" fill="white"/>
<path fill-rule="evenodd" clip-rule="evenodd" d="M278.68 184.272C278.68 192.913 271.676 199.917 263.035 199.917C254.395 199.917 247.391 192.913 247.391 184.272C247.391 175.632 254.395 168.628 263.035 168.628C271.676 168.628 278.68 175.632 278.68 184.272ZM263.035 191.858C267.225 191.858 270.621 188.462 270.621 184.272C270.621 180.083 267.225 176.687 263.035 176.687C258.846 176.687 255.45 180.083 255.45 184.272C255.45 188.462 258.846 191.858 263.035 191.858Z" fill="#0036D0"/>
<path d="M38.2645 229.31C38.2645 233.5 34.8684 236.896 30.6792 236.896C26.4899 236.896 23.0938 233.5 23.0938 229.31C23.0938 225.121 26.4899 221.725 30.6792 221.725C34.8684 221.725 38.2645 225.121 38.2645 229.31Z" fill="white"/>
<path fill-rule="evenodd" clip-rule="evenodd" d="M46.3239 229.31C46.3239 237.951 39.3195 244.955 30.6791 244.955C22.0388 244.955 15.0344 237.951 15.0344 229.31C15.0344 220.67 22.0388 213.666 30.6791 213.666C39.3195 213.666 46.3239 220.67 46.3239 229.31ZM30.6791 236.896C34.8684 236.896 38.2645 233.5 38.2645 229.31C38.2645 225.121 34.8684 221.725 30.6791 221.725C26.4899 221.725 23.0938 225.121 23.0938 229.31C23.0938 233.5 26.4899 236.896 30.6791 236.896Z" fill="#0036D0"/>
<path d="M402.96 161.424L388.112 170H333.2V80.4001H388.112L402.96 88.9761V161.424ZM351.12 95.7601V154.64H385.04V95.7601H351.12Z" fill="black"/>
<path d="M476.54 155.024V170H438.268L423.42 161.424V113.936L438.268 105.36H461.692L476.54 113.936V144.528H440.956V155.024H476.54ZM440.956 120.336V131.344H459.004V120.336H440.956Z" fill="black"/>
<path d="M546.483 138.512V161.424L531.635 170H495.795V155.024H528.947V145.168H510.643L495.795 136.592V114.576L510.643 106H545.203V120.976H513.331V129.936H531.635L546.483 138.512Z" fill="black"/>
<path d="M583.206 106V170H565.67V106H583.206ZM565.03 94.0961V76.5601H583.846V94.0961H565.03Z" fill="black"/>
<path d="M599.86 187.664V178.704L614.708 170L602.42 162.832V151.312L611.508 146.064L602.42 140.816V114.576L617.268 106H660.66V114.192L649.012 120.976L656.82 125.584V139.408L641.972 147.984H619.956V156.304H645.812L660.66 164.88V187.664L645.812 196.24H614.708L599.86 187.664ZM643.124 170H617.396V181.52H643.124V170ZM619.956 120.336V133.648H639.284V120.336H619.956Z" fill="black"/>
<path d="M734.255 113.936V170H716.719V120.336H694.831V170H677.295V105.36H691.759L694.831 110.608L703.919 105.36H719.407L734.255 113.936Z" fill="black"/>
<path d="M805.87 131.6V154.64H841.582V170H787.95V80.4001H841.582V95.7601H805.87V116.24H833.902V131.6H805.87Z" fill="black"/>
<path d="M849.24 170L872.536 137.36L850.008 106H869.08L881.624 124.048L894.168 106H913.24L890.584 137.36L914.008 170H895.192L881.624 150.8L868.056 170H849.24Z" fill="black"/>
<path d="M920.425 120.976V106H932.201V95.2481L949.737 85.1361V106H963.817V120.976H949.737V155.024H963.817V170H947.049L932.201 161.424V120.976H920.425Z" fill="black"/>
<path d="M1033.54 155.024V170H995.268L980.42 161.424V113.936L995.268 105.36H1018.69L1033.54 113.936V144.528H997.956V155.024H1033.54ZM997.956 120.336V131.344H1016V120.336H997.956Z" fill="black"/>
<path d="M1109.76 113.936V170H1092.22V120.336H1070.33V170H1052.8V105.36H1067.26L1070.33 110.608L1079.42 105.36H1094.91L1109.76 113.936Z" fill="black"/>
<path d="M1179.61 138.512V161.424L1164.76 170H1128.92V155.024H1162.07V145.168H1143.77L1128.92 136.592V114.576L1143.77 106H1178.33V120.976H1146.46V129.936H1164.76L1179.61 138.512Z" fill="black"/>
<path d="M1216.33 106V170H1198.8V106H1216.33ZM1198.16 94.0961V76.5601H1216.97V94.0961H1198.16Z" fill="black"/>
<path d="M1292.51 162.064L1277.66 170.64H1250.39L1235.55 162.064V113.936L1250.39 105.36H1277.66L1292.51 113.936V162.064ZM1253.08 120.336V155.664H1274.97V120.336H1253.08Z" fill="black"/>
<path d="M1368.63 113.936V170H1351.09V120.336H1329.21V170H1311.67V105.36H1326.13L1329.21 110.608L1338.29 105.36H1353.78L1368.63 113.936Z" fill="black"/>
<path d="M1438.48 138.512V161.424L1423.64 170H1387.8V155.024H1420.95V145.168H1402.64L1387.8 136.592V114.576L1402.64 106H1437.2V120.976H1405.33V129.936H1423.64L1438.48 138.512Z" fill="black"/>
</svg>
